<svg id="Layer_1" data-name="Layer 1" xmlns="http://www.w3.org/2000/svg" viewBox="0 0 511 512"><defs><style>.cls-1{fill:#f4e74e;}</style></defs><path class="cls-1" d="M379.37,120.63c-.59,8-5.06,14-10.42,19.4-5,5-6,10.86-3.49,16.93,2.44,5.84,8.14,7.79,14.13,8.16,14.61.92,29.14.46,41.36-8.74,5.62-4.23,9.06-3.84,12.55,2.07,3.92,6.64,9.19,12.5,16.19,15.78,10.16,4.76,11.52,10.7,7.84,21-24.34,68.05-53,134.07-95.66,193.28C326.17,438.1,284.55,482,223.31,501c-48.83,15.1-96.24,13.15-139.9-18.26C28.23,443,16.9,353.69,60.72,302.13c21.19-24.93,47.05-40.12,79.08-48,41.61-10.23,79.63-29.53,116.64-50.37,26.75-15.06,52.28-31.94,72.16-55.68,2.14-2.56,4.59-4.9,6.48-7.61C350.18,118.86,350.15,118.84,379.37,120.63Z"/><path class="cls-1" d="M480,171.71c-28.49-3-38.17-23.47-49.31-43.92-12.1,20-29.36,26.93-52.44,22.91,13-14.73,18.05-31.42,18.35-50.59-16.15,5.29-31.26,9.26-47.47,6.75-7.07-1.09-9.6-2.49-4.82-9.31,10.4-14.84,20.53-30.34,38.56-36.86,24.62-8.9,62.18,6.27,75.27,29.12a63.86,63.86,0,0,1,8,21c1.74,10.19,2.69,20.53,4.94,30.6C473.19,151,476.57,160.29,480,171.71Z"/><path class="cls-1" d="M451.43,29.26a86.9,86.9,0,0,1-.05,9.82c-2.27,20.37-4.07,21.33-22.71,12.56-1.26-.6-2.88-.85-3.75-1.78-3.77-4,3.57-39,8.77-41.21,8.8-3.79,15-.46,17.63,8,1.2,3.85.21,8.36.21,12.56Z"/></svg>