<?xml version="1.0" encoding="utf-8"?>
<!-- Generator: Adobe Illustrator 25.2.0, SVG Export Plug-In . SVG Version: 6.00 Build 0)  -->
<svg version="1.1" id="Layer_1" xmlns="http://www.w3.org/2000/svg" xmlns:xlink="http://www.w3.org/1999/xlink" x="0px" y="0px"
	 viewBox="0 0 511 512" style="enable-background:new 0 0 511 512;" xml:space="preserve">
<style type="text/css">
	.st0{fill:#F4E74E;}
	.st1{fill:#55C1EC;}
</style>
<g>
	<path class="st1" d="M427.9,191.3c7.6,18.9,12.4,38.1,13.5,58.2c3.5,62-17.7,114.1-63.6,155.7c-28.1,25.5-61.5,40.7-99.1,45.9
		c-89.4,12.4-174.5-38.9-205.2-123.8c-9.9-27.5-13.3-55.9-10-84.9c8.6-74.7,58.7-136.2,130.2-159.8c26.2-8.6,53.2-11.1,80.6-7.9
		c37.1,4.4,70,18.7,98.9,42.4c1.5,1.2,1.6,1.8,0.3,3.3c-8.9,9.5-17.6,19.1-26.3,28.8c-1.1,1.2-1.8,1.4-3.1,0.3
		c-20.6-16.7-44-27.3-70.2-31c-40.7-5.8-77.7,3.6-110.4,28.5c-29.7,22.7-48.6,52.6-55.1,89.4c-8.6,48.4,4.1,91.1,37.5,127.2
		c21.4,23.2,48,37.7,79,43.4c41.6,7.6,79.9-0.9,114-26c30.3-22.3,49.3-52.2,56.9-89.1c4.1-19.7,3.8-39.4-0.4-59.1
		c-0.2-1-0.3-1.8,0.5-2.7c10.4-12.6,20.8-25.2,31.2-37.8C427.2,191.9,427.5,191.7,427.9,191.3z"/>
	<path class="st1" d="M255.6,366.2c-5.3-6.5-10.5-12.8-15.7-19.1c-30.5-37.2-61.1-74.4-91.7-111.5c-1.2-1.5-1.1-2.2,0-3.6
		c8.4-10.1,16.8-20.3,25.1-30.5c1.2-1.4,1.7-1.6,3.1-0.2c19.6,18.9,39.3,37.8,58.9,56.6c6.3,6,12.6,12,18.8,18.1c1,1,1.6,1.3,2.8,0
		c27.9-30.6,55.8-61.2,83.7-91.7c28.3-31,56.6-61.9,84.9-92.9c1.4-1.6,2.1-1.5,3.4,0.1c8.3,10.2,16.7,20.4,25.1,30.5
		c1.1,1.3,1.2,2.1,0,3.5c-37.7,45.7-75.4,91.5-113,137.2c-27.7,33.7-55.5,67.4-83.2,101.1C257.1,364.5,256.4,365.3,255.6,366.2z"/>
</g>
</svg>
