<?xml version="1.0" encoding="utf-8"?>
<!-- Generator: Adobe Illustrator 25.2.0, SVG Export Plug-In . SVG Version: 6.00 Build 0)  -->
<svg version="1.1" id="Layer_1" xmlns="http://www.w3.org/2000/svg" xmlns:xlink="http://www.w3.org/1999/xlink" x="0px" y="0px"
	 viewBox="0 0 511 512" style="enable-background:new 0 0 511 512;" xml:space="preserve">
<style type="text/css">
	.st0{fill:#F4E74E;}
	.st1{fill:#02D19B;}
	.st2{fill:#02D19B;stroke:#02D19B;stroke-width:10;stroke-miterlimit:10;}
</style>
<path class="st1" d="M427.9,191.3c7.6,18.9,12.4,38.1,13.5,58.2c3.5,62-17.7,114.1-63.6,155.7c-28.1,25.5-61.5,40.7-99.1,45.9
	c-89.4,12.4-174.5-38.9-205.2-123.8c-9.9-27.5-13.3-55.9-10-84.9c8.6-74.7,58.7-136.2,130.2-159.8c26.2-8.6,53.2-11.1,80.6-7.9
	c37.1,4.4,70,18.7,98.9,42.4c1.5,1.2,1.6,1.8,0.3,3.3c-8.9,9.5-17.6,19.1-26.3,28.8c-1.1,1.2-1.8,1.4-3.1,0.3
	c-20.6-16.7-44-27.3-70.2-31c-40.7-5.8-77.7,3.6-110.4,28.5c-29.7,22.7-48.6,52.6-55.1,89.4c-8.6,48.4,4.1,91.1,37.5,127.2
	c21.4,23.2,48,37.7,79,43.4c41.6,7.6,79.9-0.9,114-26c30.3-22.3,49.3-52.2,56.9-89.1c4.1-19.7,3.8-39.4-0.4-59.1
	c-0.2-1-0.3-1.8,0.5-2.7c10.4-12.6,20.8-25.2,31.2-37.8C427.2,191.9,427.5,191.7,427.9,191.3z"/>
<g>
	<path class="st2" d="M306.2,288.1c0.6,15.1-5.7,21.1-18,19.7c-8.3-0.9-16.7-1.8-25-2.9c-6.9-1-13-3.4-18.2-8.5
		c-11.7-11.5-23.7-22.7-35.7-34c-4-3.8-7.8-6.9-13.8-2.5c-5.6,4.2-11,0.2-15.8-2.6c-4.4-2.6-5.2-7.4-3.8-11.9
		c1.4-4.5,0-7.3-3.2-10.2c-2.9-2.5-5.6-5.4-8.2-8.3c-10.6-11.5-14.7-27.3-9.7-36.5c9.7-18,26.3-26.4,44.3-23.1
		c9.3,1.7,16.7,6.1,22.9,13c5,5.5,10.1,10.4,19,7.7c5.5-1.6,10.8,2.1,13.6,6.6c3,4.8,2.8,10.6-2.3,14.5c-3.6,2.8-0.8,3.3,1,5
		c12.2,11.4,24.3,23,36.5,34.4c8.8,8.1,15.9,16.8,15,29.8C304.7,282.4,306,286.6,306.2,288.1z M288.9,266.8c0.1-4.5-2.8-6-4.8-8
		c-7.6-7.2-15.2-14.2-23-21.2c-5.5-5-11.1-9.8-16.6-14.8c-2-1.8-3.6-3-6.1-0.7c-7.8,7.4-15.8,14.6-23.6,21.9
		c-1.5,1.4-3.6,3.5-1.6,5.3c6.7,6.2,11.6,16.3,21.2,17.1C252.4,267.7,270.6,266.8,288.9,266.8z M195.3,178.5
		c-13.5,0.1-22.2,3.6-27.1,13.8c-4.5,9.5-2.6,19.3,5.8,27.9c3.5,3.6,7.8,6.4,11.6,9.7c1.7,1.5,3.2,1.2,4.7-0.2
		c10.2-9.5,20.5-19.1,30.7-28.7c1.4-1.3,2.6-2.6,0.9-4.5C213.7,187.9,206.3,177.9,195.3,178.5z M245.3,278.2
		c10.2,16.4,25.6,16.3,40.4,17.4c3.2,0.2,8.6,2,7.3-4.1c-1-4.6,2.7-12.9-6.4-13.2C273.3,277.8,259.9,278.2,245.3,278.2z
		 M243.2,201.2c-0.7-0.7-1.4-1.3-2.1-2c-17,16.1-35.3,30.9-51.4,48c0.6,0.6,1.1,1.2,1.7,1.8C208.6,233,225.9,217.1,243.2,201.2z"/>
	<path class="st2" d="M320.9,349.5c-0.2,14.8-10.5,23.3-23.7,22c-12-1.2-20.2-12.2-17.6-24.3c2-9.5,7.1-17.7,13.6-24.9
		c3.8-4.2,9.1-5,12.7-1.1C313.9,329.8,320,339.6,320.9,349.5z M300.1,360.3c5.1-0.7,9-2.9,9.4-8.7c0.4-4.7-6.6-17.3-9.4-17.4
		c-2.7-0.1-10,12.6-9.6,17.2C291,357,294.5,359.7,300.1,360.3z"/>
</g>
<polygon class="st0" points="122.9,362 362,138.3 374.9,148.6 128,374.9 "/>
<path class="st1" d="M439.8,282.4c-3.5,37.8-17.9,71.5-42.2,100.8c-57.5,69.5-155,89.1-235,47.2c-5-2.6-9.8-5.4-14.4-8.4
	c-19.6-12.5-36.4-28.4-50.3-47.6c-8.4-11.5-15.3-23.8-20.8-36.4c-23.5-54.1-20.9-116.2,9-169.4c13.5-24.1,31.7-44.1,54.2-60.2
	C170.8,86.6,204.7,75,242,72.9c1.9-0.1,2.4,0.3,2.4,2.2c-0.1,13-0.1,26,0,39c0,1.6-0.4,2.2-2.1,2.3c-26.5,1.5-50.9,9.6-72.8,24.5
	c-33.9,23.2-55,55.1-62.3,95.6c-6.6,36.8-0.3,71.6,19.7,103.2c1.9,3,3.8,5.9,5.8,8.6c12.1,16.8,26.5,30.1,43,40
	c18.8,11.2,40.4,17.9,64.7,19.9c31.4,2.6,60.8-4.5,87.5-21.3c35.8-22.5,58.3-54.6,66.6-96.1c7.3-36.9,1.1-71.8-18.2-104.2
	c-10.3-17.3-23.8-31.6-40.2-43.3c-0.8-0.6-1.4-1.1-1.5-2.3c-0.8-16.3-1.7-32.6-2.5-49c0-0.3,0-0.6,0.1-1.2
	c18.4,8.8,34.9,19.8,49.3,33.8C426.1,168,445.6,220.8,439.8,282.4z"/>
</svg>
