<?xml version="1.0" encoding="utf-8"?>
<!-- Generator: Adobe Illustrator 25.2.0, SVG Export Plug-In . SVG Version: 6.00 Build 0)  -->
<svg version="1.1" id="Layer_1" xmlns="http://www.w3.org/2000/svg" xmlns:xlink="http://www.w3.org/1999/xlink" x="0px" y="0px"
	 viewBox="0 0 511 512" style="enable-background:new 0 0 511 512;" xml:space="preserve">
<style type="text/css">
	.st0{fill:#F4E74E;}
	.st1{fill:#02D19B;}
	.st2{font-family:'OpenSans-ExtraBold';}
	.st3{font-size:125.2148px;}
</style>
<path class="st1" d="M427.9,191.3c7.6,18.9,12.4,38.1,13.5,58.2c3.5,62-17.7,114.1-63.6,155.7c-28.1,25.5-61.5,40.7-99.1,45.9
	c-89.4,12.4-174.5-38.9-205.2-123.8c-9.9-27.5-13.3-55.9-10-84.9c8.6-74.7,58.7-136.2,130.2-159.8c26.2-8.6,53.2-11.1,80.6-7.9
	c37.1,4.4,70,18.7,98.9,42.4c1.5,1.2,1.6,1.8,0.3,3.3c-8.9,9.5-17.6,19.1-26.3,28.8c-1.1,1.2-1.8,1.4-3.1,0.3
	c-20.6-16.7-44-27.3-70.2-31c-40.7-5.8-77.7,3.6-110.4,28.5c-29.7,22.7-48.6,52.6-55.1,89.4c-8.6,48.4,4.1,91.1,37.5,127.2
	c21.4,23.2,48,37.7,79,43.4c41.6,7.6,79.9-0.9,114-26c30.3-22.3,49.3-52.2,56.9-89.1c4.1-19.7,3.8-39.4-0.4-59.1
	c-0.2-1-0.3-1.8,0.5-2.7c10.4-12.6,20.8-25.2,31.2-37.8C427.2,191.9,427.5,191.7,427.9,191.3z"/>
<path class="st1" d="M439.8,282.4c-3.5,37.8-17.9,71.5-42.2,100.8c-57.5,69.5-155,89.1-235,47.2c-5-2.6-9.8-5.4-14.4-8.4
	c-19.6-12.5-36.4-28.4-50.3-47.6c-8.4-11.5-15.3-23.8-20.8-36.4c-23.5-54.1-20.9-116.2,9-169.4c13.5-24.1,31.7-44.1,54.2-60.2
	C170.8,86.6,204.7,75,242,72.9c1.9-0.1,2.4,0.3,2.4,2.2c-0.1,13-0.1,26,0,39c0,1.6-0.4,2.2-2.1,2.3c-26.5,1.5-50.9,9.6-72.8,24.5
	c-33.9,23.2-55,55.1-62.3,95.6c-6.6,36.8-0.3,71.6,19.7,103.2c1.9,3,3.8,5.9,5.8,8.6c12.1,16.8,26.5,30.1,43,40
	c18.8,11.2,40.4,17.9,64.7,19.9c31.4,2.6,60.8-4.5,87.5-21.3c35.8-22.5,58.3-54.6,66.6-96.1c7.3-36.9,1.1-71.8-18.2-104.2
	c-10.3-17.3-23.8-31.6-40.2-43.3c-0.8-0.6-1.4-1.1-1.5-2.3c-0.8-16.3-1.7-32.6-2.5-49c0-0.3,0-0.6,0.1-1.2
	c18.4,8.8,34.9,19.8,49.3,33.8C426.1,168,445.6,220.8,439.8,282.4z"/>
<text transform="matrix(1.1209 0 0 1 135.7141 304.7446)" class="st1 st2 st3">ISO</text>
</svg>
