<?xml version="1.0" encoding="utf-8"?>
<!-- Generator: Adobe Illustrator 25.2.0, SVG Export Plug-In . SVG Version: 6.00 Build 0)  -->
<svg version="1.1" id="Layer_1" xmlns="http://www.w3.org/2000/svg" xmlns:xlink="http://www.w3.org/1999/xlink" x="0px" y="0px"
	 viewBox="0 0 511 512" style="enable-background:new 0 0 511 512;" xml:space="preserve">
<style type="text/css">
	.st0{fill:#F4E74E;}
</style>
<g>
	<path class="st0" d="M223.2,393.1c8.1-1.8,16.2-3.2,24.1-5.3c10.5-2.8,19.9-1.9,24.6,9.2c4.7,11.2-4.8,15-11.9,20.1
		c-2.6,1.9-6.9,1.3-8.2,5.5c3.2,4.3,8.1,3,11.9,2.5c17.9-1.9,29.5,9.7,40.1,20.2c8.2,8-0.7,14.5-8.5,16.4c-8.9,2.1-15.5,4-19.1,14.2
		c-2.8,8-11.1,5.1-17.9,2.8c-5.2-1.8-10.1-5.2-13.3,4.6c-3.2,10-12.2,8.9-20.6,4.3c-13.6-7.3-23.3-19-34.1-29.7
		c-3.3,3.9-3.8,8.1-4.7,12.3c-0.6,2.6-4.1,7-4.2,6.9c-12.3-6.9-10.7,6.4-15.1,10.5c-4.7,4.4-8.2,10-15.9,7.5
		c-4-1.3-24.1-33.4-25.9-36.9c-7.1-13.9-3.7-27.3,0.1-40.9c0.8-2.7,0.4-6.2-2.4-8c-7.1-4.4-5.1-8.6,0.8-11.4
		c22-10.5,34.7-30.9,50.5-47.6c14.6-15.4,32.5-15.3,50.1-18.8c5.4-1.1,8.6,2.4,8.9,7.3c0.3,7.2,2,16-1.2,21.4
		C225.3,370.7,224.1,381.4,223.2,393.1z"/>
	<path class="st0" d="M69.3,277.4c-8.4-12-17.1-22.4-23.7-34.1c-9.1-16-4.8-23.9,12.8-27.4c-2.2-12.8-9.9-27.3,11.9-31.6
		c5.8-1.1,4.1-8.3,6.2-12.4c2.8-5.5,5.2-10.8,12.3-10.5c6.7,0.3,8.4,5.4,9.5,11c0.5,2.2-1.6,7.1,3.7,5.5c8.6-2.5,7.4,3.7,7.5,8.2
		c0.3,10.7,0.1,21.5,0.1,34.6c4.6-5.6,7.9-9.9,11.4-13.9c4.7-5.2,9.9-10.2,17.6-5.7c8.1,4.7,11.4,12.4,8.8,21.2
		c-2.6,8.8-6.8,17-10.7,26.6c10.6,0.9,20.6,3.9,30.6-2.6c8.6-5.6,17.8,1.5,26.9,0.7c1.1-0.1,2.9,2.3,3.5,3.9
		c2.1,5.2-6.5,35.3-11,39.2c-20.7,18.3-43.1,34.7-62.6,54.4c-4.5,4.6-9.7,10-16.5,2c-1.2-1.4-5.2-2-6.9-1.1
		c-16.2,8.8-29.7-4.3-44.6-5.3c-1.4-0.1-3.8-0.9-3.9-1.5c-0.6-15.1-18.1-15-23.1-25.6c-4.1-8.6,2.7-12.7,9-17.3
		c4.1-3,17.4,2.1,11.3-12.8C47.7,278.9,61.6,279.5,69.3,277.4z"/>
	<path class="st0" d="M444.3,113.7c3.4,6.5,18.1,9,6.1,19.6c2.3,2.5,4.7,4.9,6.9,7.5c3.6,4.3,5.9,9.4,3.3,14.8
		c-2.4,4.9-7.4,5-12.4,6.1c-12.8,2.7-25.5,4.6-38.7,3.6c-7.9-0.6-17-9.7-15.7-17.9c2.2-13.8-3.5-20.9-17.4-19.2
		c-6.1,0.7-7.4-1.5-9.6-5.8c-5.3-10.3-11.7-20.2-16.7-30.6c-8.8-18.1-3.4-36.3,5.6-51.4c5.7-9.5,16.9,0.4,23.3,4.9
		c7.8,5.4,11.3,16.5,23.7,16.3c1-4.6,3-11,3.7-17.4c1-10.5,4.9-18.5,16.6-18c11.5,0.5,10.7,10.5,12,18.4c0.4,2.3,0.1,4.6,0.1,10.2
		c4.3-6.5,8.3-10.1,9.2-14.3c3.4-15.5,17.4-17.8,28.5-22.7c8.9-4,10.7,4.5,10.2,11c-0.6,7.8-1.5,14.6,4.7,21.5
		c9.6,10.6-13.4,15.1-6.3,24.9c9.1,12.5,2,18.9-7.7,24.3C464.5,104.7,454.6,108.8,444.3,113.7z"/>
	<path class="st0" d="M358.3,283.8c8.2,1.5,14.1,3.9,19.7,3.3c11.6-1.2,13.7,10.4,21.1,14.7c4.4,2.6-0.2,10-6.4,11.4
		c-5.7,1.3-11.1,1.6-13.7,8.6c-4.8,12.5-17.3-4.8-23.7,5.8c-8.5,14.1-16.4,3.5-23.7-1.9c-6.2-4.6-11.6-10.3-17.9-15.9
		c-1.9,13.5-18.6,13.7-22.5,25.8c-0.8,2.3-5.1,1.7-8,0.1c-9.9-5.5-20.4-36.1-20.4-47.4c0.1-29.3,25.4-38.9,41.1-55.8
		c7.6-8.1,15.5-15.8,29.2-16.6c13.3-0.8,15,3.7,14.2,14.4c-0.3,4.7-1.6,9.1-4.3,12c-5.1,5.5-2.8,12-2.1,17.2
		c0.4,2.8,7.2-2.4,11.6-1.7c2.6,0.4,5.6-1.9,8.3-1.9c6.7,0,12.7,2.2,15.2,9c2.4,6.6-2.6,9.7-7.3,12.6
		C366,279.5,363.1,281.1,358.3,283.8z"/>
	<path class="st0" d="M251.3,154.1c-6.9-9-12.1-15.4-16.8-22.2c-2.2-3.1-3.7-6.7-4.9-10.4c-3.2-10.4,8.2-10,11-15
		c2.7-5-6.6-14.6,2.8-19.1c6.5-3.1,9.6-6.8,10.9-13.6c0.7-3.8,4.4-6.3,8.8-6.7c4.4-0.4,4.9,3.9,7.3,5.9c11.8,9.8,8,23.4,9.5,36.2
		c8.4-3,8.7-21.3,21.7-12.9c16.1,10.5-0.1,22.3,0,34.9c5.8-0.1,11.7,2.5,18.5-1.1c8-4.3,19.9-4.9,23.8,1.6c4.6,7.6,1,19.6-6.1,26.4
		c-16.2,15.4-32.5,31.3-50.9,43.6c-8,5.3-21.5,5.2-32.5,2.8c-12.5-2.7-20-13.5-29.8-20.5c-4.8-3.4-5.7-11.2-2-12.4
		C233.4,168,235.8,153.3,251.3,154.1z"/>
	<path class="st0" d="M364.7,158.2c-25.9,23.9-49.1,45.5-72.4,66.8c-75.5,69.2-151.1,138.3-226.7,207.5c-4,3.6-7.9,7.3-12,10.7
		c-3.8,3.1-7.8,4-11.7,0.1c-4.6-4.7-1.1-8.4,2-11.2c13.8-12.4,27.8-24.5,41.8-36.7c87.1-76,174.2-151.9,261.4-227.8
		C350.9,164.3,354.4,159.9,364.7,158.2z"/>
</g>
</svg>
